<svg xmlns="http://www.w3.org/2000/svg" viewBox="0 0 400 320" width="100%" height="100%" role="img" aria-label="C &amp; M Barber Shop logo">
  <!--
       C &amp; M Barber Shop brand mark.
       Draw order (bottom to top):
         1. Left pole
         2. Right pole
         3. Red oval (AAA-compliant red)
         4. C &amp; M black circle
         5. BARBER SHOP wordmark
         6. Mustache — drawn LAST so it sits ON TOP, clearly visible
    -->

  <!-- 1. Left barber pole -->
  <g transform="translate(40, 50)">
    <path d="M 18 0 C 8 0, 0 8, 0 18 L 36 18 C 36 8, 28 0, 18 0 Z" fill="#231F20"/>
    <rect x="2" y="18" width="32" height="174" fill="#FFFFFF" stroke="#231F20" stroke-width="2"/>
    <polygon points="2,28  34,58  34,70 2,40"    fill="#1B365D"/>
    <polygon points="2,58  34,88  34,100 2,70"   fill="#B40823"/>
    <polygon points="2,88  34,118 34,130 2,100"  fill="#1B365D"/>
    <polygon points="2,118 34,148 34,160 2,130"  fill="#B40823"/>
    <polygon points="2,148 34,178 34,190 2,160"  fill="#1B365D"/>
    <polygon points="2,178 34,190 34,192 2,188"  fill="#B40823"/>
    <path d="M 0 192 L 36 192 C 36 202, 28 210, 18 210 C 8 210, 0 202, 0 192 Z" fill="#231F20"/>
  </g>

  <!-- 2. Right barber pole (mirror) -->
  <g transform="translate(324, 50)">
    <path d="M 18 0 C 8 0, 0 8, 0 18 L 36 18 C 36 8, 28 0, 18 0 Z" fill="#231F20"/>
    <rect x="2" y="18" width="32" height="174" fill="#FFFFFF" stroke="#231F20" stroke-width="2"/>
    <polygon points="2,28  34,58  34,70 2,40"    fill="#1B365D"/>
    <polygon points="2,58  34,88  34,100 2,70"   fill="#B40823"/>
    <polygon points="2,88  34,118 34,130 2,100"  fill="#1B365D"/>
    <polygon points="2,118 34,148 34,160 2,130"  fill="#B40823"/>
    <polygon points="2,148 34,178 34,190 2,160"  fill="#1B365D"/>
    <polygon points="2,178 34,190 34,192 2,188"  fill="#B40823"/>
    <path d="M 0 192 L 36 192 C 36 202, 28 210, 18 210 C 8 210, 0 202, 0 192 Z" fill="#231F20"/>
  </g>

  <!-- 3. Red oval (AAA-compliant) -->
  <ellipse cx="200" cy="150" rx="140" ry="85" fill="#B40823"/>

  <!-- 4. C &amp; M black circle (spaced) -->
  <circle cx="200" cy="65" r="35" fill="#231F20"/>
  <text x="200" y="75" font-family="'Helvetica Neue', Arial, sans-serif"
        font-weight="900" font-size="22" fill="#FFFFFF" text-anchor="middle"
        letter-spacing="0.02em">C &amp; M</text>

  <!-- 5. BARBER SHOP wordmark -->
  <text x="200" y="145" font-family="'Helvetica Neue', Arial, sans-serif"
        font-weight="900" font-size="44" fill="#FFFFFF" text-anchor="middle">BARBER</text>
  <text x="200" y="195" font-family="'Helvetica Neue', Arial, sans-serif"
        font-weight="900" font-size="44" fill="#FFFFFF" text-anchor="middle">SHOP</text>

  <!-- 6. Mustache — drawn LAST so it sits ON TOP, clearly visible.
       Classic handlebar with INWARD-curling spiral tips, matching the
       reference image exactly. Tips curl up and inward toward center. -->
  <path d="M 200 235
           C 165 235, 130 220, 100 195
           C 70 170, 45 160, 25 170
           C 10 178, 5 195, 18 210
           C 28 222, 48 218, 65 200
           C 78 186, 82 165, 68 150
           C 55 137, 35 142, 22 155
           C 5 173, 0 198, 15 218
           C 30 238, 60 230, 90 210
           C 120 190, 155 205, 185 225
           C 192 230, 200 235, 200 235
           C 200 235, 208 230, 215 225
           C 245 205, 280 190, 310 210
           C 340 230, 370 238, 385 218
           C 400 198, 395 173, 378 155
           C 365 142, 345 137, 332 150
           C 318 165, 322 186, 335 200
           C 352 218, 372 222, 382 210
           C 395 195, 390 178, 375 170
           C 355 160, 330 170, 300 195
           C 270 220, 235 235, 200 235 Z"
        fill="#231F20"/>
</svg>
