<svg xmlns="http://www.w3.org/2000/svg" viewBox="0 0 400 320" width="100%" height="100%" role="img" aria-label="C &amp; M Barber Shop logo">
  <!--
       C &amp; M Barber Shop brand mark.
       Draw order (bottom to top):
         1. Left pole  (outer edge x=40, inner edge x=76)
         2. Right pole (outer edge x=360, inner edge x=324)
         3. Red oval
         4. C &amp; M black circle (with spaced ampersand)
         5. BARBER SHOP wordmark
         6. Mustache — drawn LAST so it sits clearly visible
            on the bottom front, unmasked.
    -->

  <!-- 1. Left barber pole -->
  <g transform="translate(40, 50)">
    <path d="M 18 0 C 8 0, 0 8, 0 18 L 36 18 C 36 8, 28 0, 18 0 Z" fill="#231F20"/>
    <rect x="2" y="18" width="32" height="174" fill="#FFFFFF" stroke="#231F20" stroke-width="2"/>
    <polygon points="2,28  34,58  34,70 2,40"    fill="#1B365D"/>
    <polygon points="2,58  34,88  34,100 2,70"   fill="#BE2B2D"/>
    <polygon points="2,88  34,118 34,130 2,100"  fill="#1B365D"/>
    <polygon points="2,118 34,148 34,160 2,130"  fill="#BE2B2D"/>
    <polygon points="2,148 34,178 34,190 2,160"  fill="#1B365D"/>
    <polygon points="2,178 34,190 34,192 2,188"  fill="#BE2B2D"/>
    <path d="M 0 192 L 36 192 C 36 202, 28 210, 18 210 C 8 210, 0 202, 0 192 Z" fill="#231F20"/>
  </g>

  <!-- 2. Right barber pole (mirror) -->
  <g transform="translate(324, 50)">
    <path d="M 18 0 C 8 0, 0 8, 0 18 L 36 18 C 36 8, 28 0, 18 0 Z" fill="#231F20"/>
    <rect x="2" y="18" width="32" height="174" fill="#FFFFFF" stroke="#231F20" stroke-width="2"/>
    <polygon points="2,28  34,58  34,70 2,40"    fill="#1B365D"/>
    <polygon points="2,58  34,88  34,100 2,70"   fill="#BE2B2D"/>
    <polygon points="2,88  34,118 34,130 2,100"  fill="#1B365D"/>
    <polygon points="2,118 34,148 34,160 2,130"  fill="#BE2B2D"/>
    <polygon points="2,148 34,178 34,190 2,160"  fill="#1B365D"/>
    <polygon points="2,178 34,190 34,192 2,188"  fill="#BE2B2D"/>
    <path d="M 0 192 L 36 192 C 36 202, 28 210, 18 210 C 8 210, 0 202, 0 192 Z" fill="#231F20"/>
  </g>

  <!-- 3. Red oval -->
  <ellipse cx="200" cy="150" rx="140" ry="85" fill="#BE2B2D"/>

  <!-- 4. C &amp; M black circle (spaced) -->
  <circle cx="200" cy="65" r="35" fill="#231F20"/>
  <text x="200" y="75" font-family="'Helvetica Neue', Arial, sans-serif"
        font-weight="900" font-size="22" fill="#FFFFFF" text-anchor="middle"
        letter-spacing="0.02em">C &amp; M</text>

  <!-- 5. BARBER SHOP wordmark -->
  <text x="200" y="145" font-family="'Helvetica Neue', Arial, sans-serif"
        font-weight="900" font-size="44" fill="#FFFFFF" text-anchor="middle">BARBER</text>
  <text x="200" y="195" font-family="'Helvetica Neue', Arial, sans-serif"
        font-weight="900" font-size="44" fill="#FFFFFF" text-anchor="middle">SHOP</text>

  <!-- 6. Mustache — drawn LAST so it sits clearly visible on the bottom front.
       Classic handlebar shape with upturned tips, centered below the oval. -->
  <path d="M 200 265
           C 170 265, 140 250, 110 230
           C 90 218, 70 210, 50 220
           C 35 228, 28 245, 40 258
           C 55 272, 85 265, 110 255
           C 135 245, 160 250, 200 265
           C 240 250, 265 245, 290 255
           C 315 265, 345 272, 360 258
           C 372 245, 365 228, 350 220
           C 330 210, 310 218, 290 230
           C 260 250, 230 265, 200 265 Z"
        fill="#231F20"/>
</svg>
